<svg width="1280" height="678" viewBox="0 0 1280 678" fill="none" xmlns="http://www.w3.org/2000/svg">
<rect y="29.0078" width="1280" height="648.376" fill="url(#paint0_linear_20_2)"/>
<g filter="url(#filter0_f_20_2)">
<path d="M86.2375 129.875L114.444 130.011L114.319 158.894L86.1129 158.759L86.2375 129.875ZM52 57.7505C52.8391 38.7651 59.1758 25.3364 71.0099 17.4644C78.4777 12.4365 87.6383 9.9486 98.4917 10.0008C112.753 10.0694 124.569 13.7242 133.94 20.9653C143.374 28.2067 148.06 38.89 147.999 53.0152C147.962 61.6769 145.88 68.9628 141.753 74.873C139.339 78.4594 134.713 83.0346 127.874 88.5985L121.13 94.063C117.457 97.0437 115.013 100.53 113.796 104.522C113.028 107.05 112.601 110.979 112.515 116.309L86.9591 116.186C87.3863 104.928 88.4294 97.1706 90.0884 92.9143C91.7478 88.5913 95.997 83.6479 102.836 78.0839L109.77 72.4204C112.05 70.6324 113.888 68.6756 115.285 66.5502C117.825 62.8978 119.105 58.8729 119.124 54.4754C119.146 49.4116 117.746 44.8075 114.924 40.6629C112.166 36.4519 107.063 34.3285 99.6174 34.2927C92.2977 34.2575 87.0808 36.7977 83.9667 41.9132C80.9157 47.029 79.3782 52.3519 79.3544 57.8821L52 57.7505Z" fill="#2FC18C"/>
</g>
<g filter="url(#filter1_f_20_2)">
<path d="M573.804 306.512L604.948 306.661L604.811 338.412L573.666 338.263L573.804 306.512ZM536 227.226C536.927 206.355 543.923 191.593 556.99 182.94C565.236 177.412 575.351 174.678 587.335 174.735C603.081 174.81 616.128 178.828 626.475 186.788C636.892 194.749 642.067 206.493 641.999 222.02C641.958 231.542 639.659 239.551 635.102 246.048C632.437 249.991 627.329 255.02 619.777 261.137L612.331 267.144C608.276 270.42 605.576 274.253 604.234 278.641C603.385 281.42 602.914 285.74 602.819 291.599L574.601 291.464C575.072 279.087 576.224 270.56 578.056 265.881C579.888 261.129 584.58 255.695 592.131 249.578L599.788 243.352C602.305 241.387 604.335 239.236 605.878 236.899C608.682 232.884 610.095 228.46 610.116 223.625C610.14 218.059 608.594 212.998 605.478 208.441C602.433 203.812 596.799 201.478 588.578 201.439C580.495 201.4 574.735 204.192 571.297 209.816C567.928 215.44 566.23 221.291 566.204 227.37L536 227.226Z" fill="#EA5D5D"/>
</g>
<g filter="url(#filter2_f_20_2)">
<path d="M42.825 410.731L61.6292 410.823L61.5461 430.283L42.7419 430.192L42.825 410.731ZM20 362.137C20.5594 349.345 24.7839 340.297 32.6733 334.993C37.6518 331.606 43.7589 329.93 50.9945 329.965C60.5017 330.011 68.379 332.473 74.6264 337.352C80.9158 342.231 84.0402 349.429 83.9996 358.946C83.9747 364.782 82.5865 369.691 79.8351 373.673C78.2262 376.089 75.142 379.172 70.5826 382.921L66.0866 386.602C63.6381 388.611 62.0084 390.96 61.1976 393.649C60.6856 395.353 60.4008 398 60.3434 401.591L43.3061 401.508C43.5909 393.923 44.2863 388.696 45.3923 385.828C46.4985 382.916 49.3313 379.585 53.8907 375.836L58.5135 372.021C60.0331 370.816 61.2587 369.497 62.1903 368.065C63.8835 365.605 64.7365 362.893 64.7491 359.93C64.7637 356.518 63.8304 353.416 61.9492 350.624C60.1103 347.786 56.7089 346.356 51.745 346.332C46.8651 346.308 43.3872 348.019 41.3111 351.466C39.2771 354.913 38.2522 358.499 38.2363 362.225L20 362.137Z" fill="#00D5E2"/>
</g>
<g filter="url(#filter3_f_20_2)">
<path d="M484.762 117.238L498.571 117.304L498.51 131.439L484.701 131.372L484.762 117.238ZM468 81.9427C468.411 72.652 471.513 66.0805 477.307 62.2282C480.963 59.7677 485.448 58.5503 490.762 58.5758C497.743 58.6094 503.528 60.3979 508.116 63.9414C512.735 67.4851 515.03 72.7131 515 79.6254C514.981 83.8641 513.962 87.4296 511.941 90.3218C510.76 92.0768 508.495 94.3158 505.147 97.0386L501.845 99.7127C500.047 101.171 498.85 102.877 498.255 104.831C497.878 106.068 497.669 107.991 497.627 110.599L485.115 110.539C485.325 105.03 485.835 101.233 486.647 99.1505C487.46 97.035 489.54 94.6159 492.888 91.8931L496.283 89.1216C497.399 88.2466 498.299 87.2891 498.983 86.2489C500.227 84.4616 500.853 82.4919 500.863 80.34C500.873 77.862 500.188 75.6089 498.806 73.5807C497.456 71.52 494.958 70.4809 491.313 70.4634C487.729 70.4461 485.175 71.6892 483.65 74.1925C482.157 76.696 481.404 79.3009 481.392 82.0071L468 81.9427Z" fill="#F9BA18"/>
</g>
<defs>
<filter id="filter0_f_20_2" x="42" y="0" width="116" height="168.894" filterUnits="userSpaceOnUse" color-interpolation-filters="sRGB">
<feFlood flood-opacity="0" result="BackgroundImageFix"/>
<feBlend mode="normal" in="SourceGraphic" in2="BackgroundImageFix" result="shape"/>
<feGaussianBlur stdDeviation="5" result="effect1_foregroundBlur_20_2"/>
</filter>
<filter id="filter1_f_20_2" x="526" y="164.734" width="126" height="183.678" filterUnits="userSpaceOnUse" color-interpolation-filters="sRGB">
<feFlood flood-opacity="0" result="BackgroundImageFix"/>
<feBlend mode="normal" in="SourceGraphic" in2="BackgroundImageFix" result="shape"/>
<feGaussianBlur stdDeviation="5" result="effect1_foregroundBlur_20_2"/>
</filter>
<filter id="filter2_f_20_2" x="10" y="319.964" width="84" height="120.319" filterUnits="userSpaceOnUse" color-interpolation-filters="sRGB">
<feFlood flood-opacity="0" result="BackgroundImageFix"/>
<feBlend mode="normal" in="SourceGraphic" in2="BackgroundImageFix" result="shape"/>
<feGaussianBlur stdDeviation="5" result="effect1_foregroundBlur_20_2"/>
</filter>
<filter id="filter3_f_20_2" x="458" y="48.5754" width="67" height="92.8631" filterUnits="userSpaceOnUse" color-interpolation-filters="sRGB">
<feFlood flood-opacity="0" result="BackgroundImageFix"/>
<feBlend mode="normal" in="SourceGraphic" in2="BackgroundImageFix" result="shape"/>
<feGaussianBlur stdDeviation="5" result="effect1_foregroundBlur_20_2"/>
</filter>
<linearGradient id="paint0_linear_20_2" x1="640" y1="29.0078" x2="640" y2="677.384" gradientUnits="userSpaceOnUse">
<stop stop-color="#3C1B7A"/>
<stop offset="1"/>
</linearGradient>
</defs>
</svg>
