<svg width="1280" height="749" viewBox="0 0 1280 749" fill="none" xmlns="http://www.w3.org/2000/svg">
<rect width="1280" height="748.486" fill="url(#paint0_linear_0_3)"/>
<g filter="url(#filter0_f_0_3)">
<path d="M111.091 442.002L141.647 442.147L141.512 473.001L110.956 472.856L111.091 442.002ZM74 364.957C74.9091 344.676 81.7738 330.331 94.5941 321.922C102.684 316.551 112.608 313.893 124.366 313.949C139.815 314.022 152.616 317.926 162.768 325.662C172.988 333.397 178.065 344.809 177.999 359.898C177.959 369.151 175.703 376.934 171.232 383.247C168.618 387.078 163.606 391.966 156.197 397.909L148.891 403.747C144.912 406.931 142.264 410.655 140.946 414.919C140.114 417.62 139.651 421.817 139.558 427.511L111.872 427.379C112.335 415.353 113.465 407.066 115.262 402.52C117.06 397.902 121.663 392.621 129.072 386.677L136.584 380.627C139.054 378.717 141.045 376.627 142.559 374.357C145.311 370.455 146.697 366.156 146.717 361.458C146.741 356.049 145.224 351.131 142.168 346.703C139.179 342.205 133.652 339.937 125.586 339.898C117.656 339.861 112.004 342.574 108.631 348.039C105.325 353.504 103.66 359.19 103.634 365.097L74 364.957Z" fill="#00D5E2"/>
</g>
<g filter="url(#filter1_f_0_3)">
<path d="M994.62 161.344L1021.49 161.472L1021.38 188.574L994.501 188.447L994.62 161.344ZM962 93.6661C962.8 75.8512 968.837 63.2504 980.112 55.8637C987.227 51.1457 995.955 48.8112 1006.3 48.8602C1019.88 48.9246 1031.14 52.3541 1040.07 59.1488C1049.06 65.9437 1053.52 75.9683 1053.46 89.2227C1053.43 97.3504 1051.44 104.187 1047.51 109.733C1045.21 113.098 1040.81 117.391 1034.29 122.612L1027.86 127.74C1024.36 130.537 1022.04 133.808 1020.88 137.554C1020.15 139.926 1019.74 143.613 1019.66 148.615L995.308 148.499C995.715 137.935 996.708 130.656 998.289 126.662C999.87 122.606 1003.92 117.967 1010.43 112.746L1017.04 107.432C1019.21 105.754 1020.96 103.918 1022.3 101.923C1024.72 98.496 1025.93 94.7192 1025.95 90.5929C1025.97 85.8413 1024.64 81.521 1021.95 77.6319C1019.32 73.6806 1014.46 71.6881 1007.37 71.6545C1000.39 71.6215 995.424 74.005 992.457 78.8051C989.55 83.6056 988.085 88.6004 988.062 93.7896L962 93.6661Z" fill="#EA5D5D"/>
</g>
<g filter="url(#filter2_f_0_3)">
<path d="M251.553 268.872L295.672 269.081L295.477 313.576L251.358 313.367L251.553 268.872ZM198 157.764C199.313 128.517 209.224 107.83 227.735 95.7035C239.415 87.958 253.744 84.1254 270.72 84.2059C293.027 84.3115 311.509 89.9418 326.167 101.097C340.923 112.252 348.254 128.71 348.158 150.469C348.1 163.813 344.843 175.037 338.387 184.141C334.612 189.666 327.376 196.714 316.679 205.286L306.13 213.704C300.385 218.295 296.562 223.666 294.659 229.816C293.458 233.71 292.79 239.763 292.655 247.974L252.682 247.784C253.35 230.441 254.981 218.491 257.576 211.934C260.172 205.274 266.818 197.659 277.516 189.088L288.362 180.363C291.927 177.609 294.803 174.594 296.988 171.32C300.961 165.694 302.962 159.493 302.992 152.719C303.026 144.918 300.837 137.825 296.423 131.441C292.108 124.954 284.128 121.683 272.481 121.628C261.032 121.573 252.872 125.486 248.001 133.367C243.229 141.248 240.824 149.448 240.787 157.967L198 157.764Z" fill="#2FC18C"/>
</g>
<g filter="url(#filter3_f_0_3)">
<path d="M1082.55 448.717L1126.67 448.926L1126.48 493.421L1082.36 493.212L1082.55 448.717ZM1029 337.609C1030.31 308.362 1040.22 287.675 1058.73 275.548C1070.42 267.802 1084.74 263.97 1101.72 264.05C1124.03 264.156 1142.51 269.786 1157.17 280.941C1171.92 292.097 1179.25 308.554 1179.16 330.314C1179.1 343.657 1175.84 354.881 1169.39 363.986C1165.61 369.511 1158.38 376.559 1147.68 385.13L1137.13 393.548C1131.39 398.14 1127.56 403.511 1125.66 409.66C1124.46 413.555 1123.79 419.608 1123.66 427.818L1083.68 427.629C1084.35 410.286 1085.98 398.335 1088.58 391.779C1091.17 385.119 1097.82 377.504 1108.52 368.932L1119.36 360.208C1122.93 357.453 1125.8 354.439 1127.99 351.165C1131.96 345.538 1133.96 339.338 1133.99 332.563C1134.03 324.763 1131.84 317.67 1127.42 311.285C1123.11 304.798 1115.13 301.527 1103.48 301.472C1092.03 301.418 1083.87 305.331 1079 313.211C1074.23 321.092 1071.82 329.292 1071.79 337.811L1029 337.609Z" fill="#F9BA18"/>
</g>
<defs>
<filter id="filter0_f_0_3" x="64" y="303.948" width="124" height="179.053" filterUnits="userSpaceOnUse" color-interpolation-filters="sRGB">
<feFlood flood-opacity="0" result="BackgroundImageFix"/>
<feBlend mode="normal" in="SourceGraphic" in2="BackgroundImageFix" result="shape"/>
<feGaussianBlur stdDeviation="5" result="effect1_foregroundBlur_0_3"/>
</filter>
<filter id="filter1_f_0_3" x="952" y="38.8595" width="111.465" height="159.715" filterUnits="userSpaceOnUse" color-interpolation-filters="sRGB">
<feFlood flood-opacity="0" result="BackgroundImageFix"/>
<feBlend mode="normal" in="SourceGraphic" in2="BackgroundImageFix" result="shape"/>
<feGaussianBlur stdDeviation="5" result="effect1_foregroundBlur_0_3"/>
</filter>
<filter id="filter2_f_0_3" x="188" y="74.2046" width="170.159" height="249.371" filterUnits="userSpaceOnUse" color-interpolation-filters="sRGB">
<feFlood flood-opacity="0" result="BackgroundImageFix"/>
<feBlend mode="normal" in="SourceGraphic" in2="BackgroundImageFix" result="shape"/>
<feGaussianBlur stdDeviation="5" result="effect1_foregroundBlur_0_3"/>
</filter>
<filter id="filter3_f_0_3" x="1019" y="254.049" width="170.159" height="249.371" filterUnits="userSpaceOnUse" color-interpolation-filters="sRGB">
<feFlood flood-opacity="0" result="BackgroundImageFix"/>
<feBlend mode="normal" in="SourceGraphic" in2="BackgroundImageFix" result="shape"/>
<feGaussianBlur stdDeviation="5" result="effect1_foregroundBlur_0_3"/>
</filter>
<linearGradient id="paint0_linear_0_3" x1="640" y1="0" x2="640" y2="748.486" gradientUnits="userSpaceOnUse">
<stop stop-color="#3C1B7A"/>
<stop offset="1"/>
</linearGradient>

</defs>
</svg>
