<svg width="150" height="158" viewBox="0 0 150 158" fill="none" xmlns="http://www.w3.org/2000/svg">
<path d="M75.5052 158L59.9125 130.993L91.0978 130.993L75.5052 158Z" fill="#2FC18C"/>
<g filter="url(#filter0_di_10_263)">
<ellipse cx="75.1073" cy="72.8521" rx="68.2683" ry="68.6434" fill="#3C1B7A"/>
<path d="M75.1073 143.276C113.804 143.276 145.157 111.737 145.157 72.8521C145.157 33.9671 113.804 2.42783 75.1073 2.42783C36.411 2.42783 5.05808 33.9671 5.05808 72.8521C5.05808 111.737 36.411 143.276 75.1073 143.276Z" stroke="#2FC18C" stroke-width="3.56182"/>
</g>
<path d="M71.1742 60.4241L80.2947 60.4657L80.2545 69.3108L71.1339 69.2692L71.1742 60.4241ZM60.1034 38.3369C60.3747 32.5229 62.4237 28.4106 66.2503 25.9999C68.665 24.4602 71.6271 23.6983 75.1366 23.7143C79.7479 23.7353 83.5686 24.8545 86.5988 27.072C89.6494 29.2896 91.1648 32.5612 91.1451 36.8868C91.133 39.5393 90.4597 41.7705 89.1252 43.5805C88.3448 44.6787 86.8489 46.0798 84.6374 47.7837L82.4568 49.4571C81.2691 50.3699 80.4787 51.4376 80.0855 52.66C79.8371 53.4343 79.699 54.6375 79.6711 56.2697L71.4075 56.2321C71.5457 52.7844 71.8829 50.4088 72.4194 49.1054C72.9559 47.7815 74.3299 46.2676 76.5414 44.5637L78.7836 42.8294C79.5206 42.2818 80.1151 41.6826 80.5669 41.0317C81.3882 39.9132 81.8019 38.6806 81.808 37.334C81.8151 35.7833 81.3624 34.3733 80.45 33.1041C79.5581 31.8145 77.9083 31.1643 75.5006 31.1533C73.1338 31.1425 71.4469 31.9204 70.4399 33.487C69.4534 35.0536 68.9562 36.6837 68.9485 38.3772L60.1034 38.3369Z" fill="#2FC18C"/>
<path d="M96.5355 64.213L102.247 67.5454L99.0202 73.0761L93.3086 69.7438L96.5355 64.213ZM97.5791 46.3523C99.8539 42.8057 102.629 40.9702 105.904 40.8461C107.978 40.7561 110.113 41.3522 112.311 42.6345C115.199 44.3193 117.193 46.4061 118.293 48.8948C119.405 51.3909 119.173 53.9914 117.595 56.6961C116.627 58.3547 115.397 59.5095 113.904 60.1604C113.016 60.5661 111.57 60.9022 109.564 61.1688L107.589 61.4274C106.513 61.5691 105.631 61.9519 104.941 62.5758C104.505 62.9712 103.983 63.6755 103.374 64.6887L98.1994 61.6694C99.5341 59.558 100.606 58.1909 101.414 57.5682C102.23 56.9327 103.641 56.4817 105.646 56.2151L107.682 55.9406C108.343 55.8645 108.933 55.7043 109.452 55.4601C110.373 55.0566 111.079 54.4338 111.57 53.5917C112.136 52.6221 112.362 51.574 112.249 50.4475C112.155 49.3157 111.355 48.31 109.847 47.4303C108.365 46.5655 107.024 46.4417 105.825 47.0588C104.638 47.6834 103.736 48.5251 103.118 49.5841L97.5791 46.3523Z" fill="#EA5D5D"/>
<path d="M46.8329 67.6675L53.2279 65.985L54.857 72.1777L48.4619 73.8601L46.8329 67.6675ZM34.9414 54.3001C34.0421 50.1837 34.7065 46.9236 36.9346 44.5198C38.3372 42.99 40.2689 41.9015 42.7296 41.2541C45.9629 40.4035 48.8484 40.4692 51.3859 41.4511C53.9378 42.4294 55.612 44.4327 56.4087 47.4612C56.8972 49.3182 56.8438 51.0048 56.2483 52.5208C55.9076 53.4352 55.1225 54.6957 53.893 56.3021L52.6794 57.8815C52.0187 58.7426 51.6652 59.6375 51.6188 60.5661C51.59 61.1541 51.7187 62.0214 52.005 63.168L46.2108 64.6923C45.6616 62.2556 45.4527 60.5311 45.5841 59.519C45.7118 58.4926 46.3904 57.1762 47.6199 55.5697L48.8652 53.9362C49.2787 53.415 49.5828 52.8845 49.7773 52.3445C50.1428 51.4083 50.2016 50.4688 49.9536 49.526C49.668 48.4403 49.0868 47.5393 48.21 46.823C47.3438 46.0886 46.0666 45.9435 44.3784 46.3876C42.7188 46.8242 41.6832 47.6847 41.2715 48.9691C40.8741 50.2497 40.8314 51.4829 41.1433 52.6685L34.9414 54.3001Z" fill="#F9BA18"/>
<path d="M38.1498 85.6285H30.9281L31.5893 83.9842V108.09H28.7074V83.9842L29.5211 85.6285H22.1638V83.0857H38.1498V85.6285ZM44.7545 108.09V83.0857H53.4341C55.7283 83.0857 57.4744 83.6282 58.6723 84.7131C59.8703 85.7981 60.4693 87.4537 60.4693 89.6801C60.4693 91.0137 60.215 92.1495 59.7064 93.0875C59.2092 94.0142 58.6045 94.7319 57.8925 95.2405C57.1918 95.749 56.542 96.0372 55.943 96.105C56.5533 96.1502 57.1523 96.3198 57.74 96.6136C58.3389 96.8961 58.8362 97.3369 59.2318 97.9359C59.6273 98.5349 59.8251 99.3373 59.8251 100.343C59.8251 101.27 59.8251 102.219 59.8251 103.191C59.8251 104.152 59.8251 105.101 59.8251 106.039C59.8251 106.525 59.8646 106.96 59.9438 107.344C60.0229 107.717 60.1133 107.966 60.215 108.09H57.2992C57.2201 107.943 57.141 107.689 57.0619 107.327C56.9828 106.966 56.9432 106.536 56.9432 106.039C56.9432 105.169 56.9432 104.282 56.9432 103.378C56.9432 102.473 56.9432 101.581 56.9432 100.699C56.9432 99.5915 56.5929 98.7665 55.8922 98.2241C55.1915 97.6816 54.2026 97.4104 52.9255 97.4104H46.7719L47.5856 96.3085V108.09H44.7545ZM47.5856 96.0711L46.7719 94.8675H52.9594C53.7957 94.8675 54.5529 94.6641 55.231 94.2572C55.9204 93.8391 56.4685 93.2627 56.8754 92.5281C57.2936 91.7822 57.5026 90.912 57.5026 89.9175C57.5026 88.3691 57.0958 87.2673 56.2821 86.6118C55.4684 85.9563 54.293 85.6285 52.756 85.6285H46.704L47.5856 84.3741V96.0711ZM67.919 108.09V83.0857H70.767V108.09H67.919ZM83.9611 108.226L77.1633 83.0857H80.3333L86.1649 105.954H85.9615L91.7253 83.0857H94.9123L88.1822 108.226H83.9611ZM101.296 108.09V83.0857H104.144V108.09H101.296ZM110.607 108.09L117.489 83.0179H121.999L128.831 108.09H125.847L119.727 84.8996H119.761L113.59 108.09H110.607ZM114.167 101.462V98.9191H125.321V101.462H114.167Z" fill="white"/>
<defs>
<filter id="filter0_di_10_263" x="0.902672" y="0.646912" width="148.409" height="149.16" filterUnits="userSpaceOnUse" color-interpolation-filters="sRGB">
<feFlood flood-opacity="0" result="BackgroundImageFix"/>
<feColorMatrix in="SourceAlpha" type="matrix" values="0 0 0 0 0 0 0 0 0 0 0 0 0 0 0 0 0 0 127 0" result="hardAlpha"/>
<feOffset dy="2.37455"/>
<feGaussianBlur stdDeviation="1.18728"/>
<feComposite in2="hardAlpha" operator="out"/>
<feColorMatrix type="matrix" values="0 0 0 0 0 0 0 0 0 0 0 0 0 0 0 0 0 0 0.25 0"/>
<feBlend mode="normal" in2="BackgroundImageFix" result="effect1_dropShadow_10_263"/>
<feBlend mode="normal" in="SourceGraphic" in2="effect1_dropShadow_10_263" result="shape"/>
<feColorMatrix in="SourceAlpha" type="matrix" values="0 0 0 0 0 0 0 0 0 0 0 0 0 0 0 0 0 0 127 0" result="hardAlpha"/>
<feOffset dy="2.37455"/>
<feGaussianBlur stdDeviation="10.3887"/>
<feComposite in2="hardAlpha" operator="arithmetic" k2="-1" k3="1"/>
<feColorMatrix type="matrix" values="0 0 0 0 0.121493 0 0 0 0 0.0553125 0 0 0 0 0.245833 0 0 0 1 0"/>
<feBlend mode="normal" in2="shape" result="effect2_innerShadow_10_263"/>
</filter>
</defs>
</svg>
